<?xml version="1.0" encoding="UTF-8"?>
<svg version="1.1" xmlns="http://www.w3.org/2000/svg" width="50" height="50">
<path d="M0 0 C2.0001085 0 4.00032541 -0.02084011 6 -0.0625 C9 0 9 0 12 1 C12.33 0.67 12.66 0.34 13 0 C19.72 0.72 19.72 0.72 21 2 C21.16796875 3.92578125 21.16796875 3.92578125 21.1875 6.3125 C21.20167969 7.09238281 21.21585938 7.87226563 21.23046875 8.67578125 C20.97984413 11.2032668 20.26373772 12.81718031 19 15 C19.763125 15.061875 20.52625 15.12375 21.3125 15.1875 C24 16 24 16 25.8125 18.5625 C26.4003125 19.7690625 26.4003125 19.7690625 27 21 C26 22 26 22 22.4375 22.0625 C21.303125 22.041875 20.16875 22.02125 19 22 C18.67 22.66 18.34 23.32 18 24 C10.74 24 3.48 24 -4 24 C-4.33 23.34 -4.66 22.68 -5 22 C-7.31 22 -9.62 22 -12 22 C-11.8125 19.625 -11.8125 19.625 -11 17 C-8.4375 15.6875 -8.4375 15.6875 -6 15 C-6.33 14.505 -6.66 14.01 -7 13.5 C-8.48667975 9.78330061 -8.31792098 7.0058044 -8 3 C-5.94718622 -0.45737058 -3.80056215 -0.28504216 0 0 Z M0 2 C0 5.3 0 8.6 0 12 C0.33 12 0.66 12 1 12 C1 8.7 1 5.4 1 2 C0.67 2 0.34 2 0 2 Z M12 2 C12 5.3 12 8.6 12 12 C12.33 12 12.66 12 13 12 C13 8.7 13 5.4 13 2 C12.67 2 12.34 2 12 2 Z M1 12 C2 14 2 14 2 14 Z M11 12 C12 14 12 14 12 14 Z M2 14 C3 16 3 16 3 16 Z M10 14 C10 14.66 10 15.32 10 16 C10.66 15.67 11.32 15.34 12 15 C11.34 14.67 10.68 14.34 10 14 Z " fill="#000000" transform="translate(18,24)"/>
<path d="M0 0 C2.8125 1.5 2.8125 1.5 5 3 C5.845625 2.979375 6.69125 2.95875 7.5625 2.9375 C10 3 10 3 12.3125 4.5 C14.63083824 7.93457517 14.45095263 11.03013829 14 15 C13.67 16.65 13.34 18.3 13 20 C9.04 19.67 5.08 19.34 1 19 C1 18.34 1 17.68 1 17 C0.26394531 17.2165625 -0.47210938 17.433125 -1.23046875 17.65625 C-2.20628906 17.9346875 -3.18210937 18.213125 -4.1875 18.5 C-5.15042969 18.7784375 -6.11335938 19.056875 -7.10546875 19.34375 C-9.85345876 19.96677608 -12.19598416 20.12302812 -15 20 C-14.79375 19.21625 -14.5875 18.4325 -14.375 17.625 C-14.25125 16.75875 -14.1275 15.8925 -14 15 C-14.66 14.34 -15.32 13.68 -16 13 C-16.68767908 5.89398281 -16.68767908 5.89398281 -14.125 2.5625 C-9.66124252 -0.71967462 -5.40346058 -0.51298676 0 0 Z M5 5 C6 7 6 7 6 7 Z M6 8 C7 10 7 10 7 10 Z M5 10 C6 13 6 13 6 13 Z M4 13 C5 15 5 15 5 15 Z " fill="#000000" transform="translate(26,2)"/>
</svg>
